<svg height="512pt" viewBox="-26 0 512 512.001" width="512pt" xmlns="http://www.w3.org/2000/svg"><path d="m156.722656 460.117188-96.738281-25.917969 38.667969-144.324219 96.738281 25.921875zm0 0" fill="#5fb3b7"/><path d="m103.417969 368.800781c2.675781-9.992187 10.488281-17.230469 19.835937-19.652343-2.851562-2.230469-6.1875-3.941407-9.90625-4.9375-14.78125-3.960938-29.972656 4.8125-33.929687 19.589843-3.960938 14.78125 4.808593 29.972657 19.589843 33.933594 4.785157 1.28125 9.613282 1.222656 14.09375.0625-8.480468-6.644531-12.648437-17.933594-9.683593-28.996094zm0 0" fill="#fff"/><path d="m132.9375 378.144531c2.964844-11.0625-1.203125-22.351562-9.683594-28.996093-9.347656 2.421874-17.160156 9.660156-19.835937 19.652343-2.960938 11.0625 1.203125 22.351563 9.683593 28.996094 9.347657-2.421875 17.160157-9.660156 19.835938-19.652344zm0 0" fill="#ff3855"/><g fill-rule="evenodd"><path d="m55.171875 458.546875c-2.976563 11.121094 4.710937 22.929687 17.085937 26.246094l46.949219 12.578125 14.746094 3.949218c7.492187-1.789062 13.625-7.058593 15.585937-14.390624l6.3125-23.550782-95.140624-25.492187zm0 0" fill="#ff9822"/><path d="m101.035156 287.398438 95.054688 25.46875c5.28125-25.09375-6.542969-53.746094-18.222656-60.882813 2.898437-17.839844 5.839843-38.019531 8.128906-56.96875h-19.601563c-6.429687 15.355469-12.773437 31.382813-18.277343 45.898437-14.214844.355469-40.1875 20.742188-47.082032 46.484376zm0 0" fill="#ff9822"/><path d="m199.65625 118.449219-24.289062-6.507813c-1.46875.902344-2.496094 2.292969-2.476563 4.0625l-5.832031 21.761719c-1.996094 3.464844 1.28125 7.871094 5.144531 8.90625-5.542969 10.960937-11.78125 24.796875-18.023437 39.511719h32.847656c1.320312-11.789063 2.332031-22.84375 2.855468-32.234375 3.863282 1.035156 7.871094-1.28125 8.90625-5.144531l5.832032-21.761719c.996094-3.726563-1.234375-7.59375-4.964844-8.59375zm0 0" fill="#e9ca92"/><path d="m317.796875 141.171875c3.863281-1.035156 7.144531-5.441406 5.144531-8.90625l-5.832031-21.765625c.015625-1.445312-.664063-2.644531-1.71875-3.527344l-26.046875 6.976563c-3.726562 1-5.960938 4.867187-4.960938 8.59375l5.832032 21.761719c1.035156 3.863281 5.042968 6.175781 8.90625 5.140624.519531 9.394532 1.53125 20.449219 2.851562 32.238282h34.273438c-6.386719-15.085938-12.78125-29.300782-18.449219-40.511719zm0 0" fill="#e9ca92"/></g><path d="m441.863281 421.679688-90.742187 24.3125-38.34375-143.113282 90.738281-24.3125zm0 0" fill="#5fb3b7"/><path d="m350.539062 372.144531c-2.863281-10.691406.9375-21.59375 8.851563-28.3125-4.089844-.839843-8.429687-.773437-12.738281.378907-14.777344 3.960937-23.550782 19.152343-19.589844 33.933593 3.960938 14.777344 19.152344 23.546875 33.933594 19.589844 4.085937-1.097656 7.714844-3.054687 10.738281-5.625-9.941406-2.046875-18.386719-9.492187-21.195313-19.964844zm0 0" fill="#fff"/><path d="m380.582031 363.800781c-2.804687-10.472656-11.25-17.921875-21.191406-19.96875-7.914063 6.714844-11.714844 17.621094-8.851563 28.3125 2.808594 10.472657 11.253907 17.917969 21.195313 19.964844 7.914063-6.714844 11.714844-17.617187 8.847656-28.308594zm0 0" fill="#ff3855"/><path d="m356.414062 232.082031c-5.503906-14.515625-11.847656-30.542969-18.273437-45.898437h-16.367187c2.195312 17.5625 4.890624 35.921875 7.550781 52.300781-12.128907 7.417969-24.429688 38.058594-17.53125 63.800781l91.472656-24.511718c-7.210937-25.367188-32.78125-45.339844-46.851563-45.691407zm0 0" fill="#ff9822"/><path d="m443.046875 426.160156-91.492187 24.515625 6.097656 22.757813c2.976562 11.117187 15.542968 17.5 27.917968 14.1875l46.945313-12.582032 5.761719-1.542968c8.71875-4.953125 13.539062-14.597656 11.078125-23.78125zm0 0" fill="#ff9822" fill-rule="evenodd"/><path d="m202.246094 108.792969-48.175782-12.910157c-5.265624-1.410156-11.171874-.242187-15.414062 3.050782-3.226562 2.5-5.238281 6.046875-5.675781 9.917968l-5.335938 19.917969c-1.574219 3.644531-1.585937 7.800781.007813 11.644531.523437 1.261719 1.207031 2.460938 2.023437 3.570313-5.101562 10.617187-10.914062 23.714844-17.015625 38.28125-.007812.019531-.015625.035156-.023437.050781-5.328125 12.726563-10.878907 26.570313-16.359375 40.867188-18.679688 5.066406-42.503906 26.933594-49.433594 52.792968l-45.859375 171.152344c-4.414063 16.472656 6.425781 33.738282 24.15625 38.488282l93.894531 25.160156c3.054688.816406 6.15625 1.222656 9.230469 1.222656 5.347656 0 10.609375-1.230469 15.371094-3.648438 7.851562-3.988281 13.378906-10.675781 15.5625-18.832031l6.308593-23.542969s.003907-.003906.003907-.007812 0-.007812 0-.007812l39.546875-147.589844c6.929687-25.859375-2.769532-56.707032-16.414063-70.4375 3.4375-21.644532 6.296875-42.566406 8.316407-60.632813.003906-.050781.011718-.105469.015624-.15625 1.011719-9.054687 1.808594-17.378906 2.363282-24.726562 4.328125-2.121094 7.761718-6.015625 9.105468-11.027344l5.832032-21.761719c2.429687-9.0625-2.96875-18.410156-12.03125-20.835937zm-50.46875 7.179687 42.410156 11.363282-4.449219 16.609374c-.078125 0-.15625.007813-.238281.011719-.074219.003907-.144531.007813-.21875.011719-.242188.015625-.484375.039062-.722656.070312-.082032.011719-.164063.023438-.246094.035157-.238281.039062-.476562.085937-.710938.140625-.066406.015625-.136718.027344-.207031.046875-.285156.074219-.566406.15625-.847656.257812-.089844.03125-.175781.070313-.265625.105469-.1875.070312-.371094.148438-.554688.230469-.113281.050781-.222656.105469-.332031.164062-.15625.078125-.3125.160157-.464843.246094-.105469.0625-.214844.125-.320313.1875-.15625.097656-.3125.203125-.464844.3125-.089843.0625-.175781.121094-.261719.183594-.203124.152343-.402343.3125-.589843.480469-.03125.027343-.0625.050781-.09375.074218-.222657.203125-.4375.417969-.644531.636719-.042969.046875-.082032.097656-.125.144531-.15625.171875-.308594.351563-.453126.539063-.058593.078125-.113281.15625-.171874.234375-.121094.160156-.234376.328125-.34375.496094-.058594.097656-.121094.195312-.175782.289062-.097656.160156-.183594.324219-.269531.488281-.058594.109375-.117187.21875-.171875.332031-.074219.160157-.140625.324219-.207031.488282-.050781.121094-.105469.238281-.148438.363281-.089843.242187-.164062.488281-.234375.742187-.085937.296876-.152344.605469-.207031.914063-.011719.0625-.03125.128906-.042969.195313-.003906.039062-.007812.085937-.011718.128906-.046876.300781-.082032.605468-.097657.90625-.363281 6.546875-.996093 14.238281-1.859375 22.777344h-41.042968c5.171874-11.878907 9.984374-22.289063 14.128906-30.492188.132812-.261719.25-.53125.359375-.804688.019531-.046874.042969-.097656.0625-.144531.023437-.054687.035156-.113281.054687-.164062.109375-.304688.207032-.613281.285156-.917969.066407-.253906.125-.507812.167969-.761719.023438-.125.035157-.246093.050781-.371093.023438-.183594.050782-.367188.0625-.550782.011719-.117187.015626-.234375.019532-.351562.011718-.195313.015625-.390625.011718-.585938 0-.101562-.003906-.207031-.007812-.308594-.011719-.21875-.027344-.429687-.050781-.644531-.007813-.082031-.015625-.164062-.027344-.25-.035156-.253906-.078125-.507812-.132813-.757812-.011718-.042969-.015624-.082031-.023437-.125-.070313-.300781-.152344-.597657-.25-.890625-.003906-.019532-.011719-.035156-.015625-.054688-.089844-.257812-.1875-.515625-.296875-.765625-.039063-.09375-.082031-.183593-.125-.273437-.082031-.175782-.164063-.347656-.257813-.519532-.054687-.105468-.117187-.210937-.175781-.316406-.089843-.152344-.183593-.300781-.277343-.445312-.070313-.105469-.140626-.214844-.210938-.316406-.109375-.15625-.230469-.304688-.347656-.453126-.066406-.082031-.128906-.167968-.199219-.25-.1875-.21875-.386719-.433593-.59375-.636718-.0625-.0625-.128906-.117188-.195313-.175782-.160156-.152343-.328124-.300781-.5-.4375-.074218-.0625-.148437-.121093-.226562-.175781-.179688-.140625-.367188-.273437-.558594-.398437-.070312-.046875-.136718-.09375-.207031-.136719-.066406-.039063-.125-.085937-.1875-.121094zm-47.9375 126.105469c4.0625-.101563 7.660156-2.652344 9.097656-6.453125 5.199219-13.703125 10.480469-27.050781 15.59375-39.441406h47.253906c-1.648437 13.425781-3.695312 28.105468-6.050781 43.265625l-2.445313-.652344c-5.335937-1.429687-10.820312 1.734375-12.246093 7.070313-1.429688 5.335937 1.734375 10.816406 7.070312 12.246093l11.476563 3.074219c6.519531 5.207031 14.691406 23.796875 13.691406 42.066406l-117.484375-31.480468c8.671875-17.113282 26.269531-29.5 34.042969-29.695313zm44.941406 209.054687-119.578125-32.042968 34.371094-128.277344 119.582031 32.042969zm-14.207031 39.390626c-3.082031 1.566406-6.765625 1.898437-10.363281.9375l-93.890626-25.160157c-.003906 0 0 0-.003906 0-6.960937-1.867187-11.546875-8.273437-10.011718-13.996093l3.722656-13.894532 119.578125 32.039063-3.722657 13.894531c-.695312 2.597656-2.582031 4.792969-5.308593 6.179688zm0 0"/><path d="m133.414062 250.425781.234376.0625c.863281.230469 1.730468.339844 2.582031.339844 4.417969 0 8.464843-2.953125 9.65625-7.425781 1.421875-5.335938-1.75-10.816406-7.085938-12.238282l-.234375-.0625c-5.332031-1.421874-10.8125 1.75-12.238281 7.085938-1.421875 5.335938 1.75 10.816406 7.085937 12.238281zm0 0"/><path d="m138.832031 352.121094c-5.039062-8.722656-13.167969-14.960938-22.894531-17.570313-3.199219-.855469-6.488281-1.289062-9.777344-1.289062-17.023437 0-31.992187 11.492187-36.398437 27.953125-2.609375 9.726562-1.269531 19.886718 3.765625 28.609375 5.035156 8.722656 13.167968 14.960937 22.894531 17.566406 3.199219.855469 6.484375 1.292969 9.773437 1.292969 17.023438 0 31.992188-11.496094 36.402344-27.953125 2.605469-9.726563 1.269532-19.886719-3.765625-28.609375zm-15.550781 23.433594c-2.070312 7.730468-9.097656 13.128906-17.085938 13.128906-1.539062 0-3.085937-.207032-4.597656-.609375-4.570312-1.226563-8.386718-4.15625-10.75-8.25-2.367187-4.097657-2.996094-8.867188-1.769531-13.433594 2.070313-7.730469 9.09375-13.128906 17.082031-13.128906 1.539063 0 3.089844.203125 4.601563.609375 4.566406 1.222656 8.382812 4.152344 10.75 8.25 2.363281 4.09375 2.992187 8.867187 1.769531 13.433594zm0 0"/><path d="m459.015625 447.125-45.859375-171.148438c-6.929688-25.859374-30.75-47.726562-49.433594-52.792968-5.480468-14.296875-11.027344-28.140625-16.359375-40.867188-.003906-.015625-.011719-.03125-.019531-.050781-6.101562-14.566406-11.917969-27.664063-17.019531-38.28125.816406-1.109375 1.5-2.308594 2.027343-3.570313 1.589844-3.84375 1.578126-8 .003907-11.644531l-5.335938-19.921875c-.4375-3.867187-2.445312-7.414062-5.671875-9.914062-4.242187-3.292969-10.152344-4.460938-15.417968-3.050782l-48.175782 12.90625c-4.382812 1.175782-8.050781 3.992188-10.324218 7.933594-2.273438 3.941406-2.882813 8.523438-1.707032 12.90625l5.832032 21.765625c1.34375 5.011719 4.777343 8.90625 9.105468 11.023438.554688 7.34375 1.351563 15.664062 2.359375 24.710937.007813.066406.015625.128906.023438.191406 2.019531 18.0625 4.875 38.972657 8.3125 60.613282-13.644531 13.730468-23.34375 44.578125-16.414063 70.4375l45.859375 171.148437c2.183594 8.15625 7.714844 14.84375 15.566407 18.832031 4.757812 2.417969 10.019531 3.648438 15.371093 3.648438 3.070313 0 6.175781-.40625 9.226563-1.222656l93.894531-25.160156c8.371094-2.242188 15.507813-7.355469 20.09375-14.398438 4.804687-7.382812 6.25-15.9375 4.0625-24.09375zm-182.167969-124.269531 119.578125-32.042969 34.375 128.277344-119.582031 32.042968zm79.316406-80.777344c7.773438.195313 25.367188 12.582031 34.039063 29.699219l-117.484375 31.480468c-1-18.273437 7.175781-36.863281 13.691406-42.070312l11.480469-3.074219c5.332031-1.429687 8.5-6.910156 7.070313-12.246093-1.429688-5.332032-6.914063-8.5-12.246094-7.070313l-2.445313.65625c-2.355469-15.164063-4.402343-29.84375-6.054687-43.269531h47.257812c5.113282 12.394531 10.394532 25.738281 15.589844 39.441406 1.441406 3.800781 5.039062 6.351562 9.101562 6.453125zm-47.941406-126.101563 4.453125 16.605469c-.066406.039063-.125.082031-.191406.121094-.070313.046875-.140625.089844-.210937.136719-.1875.125-.375.257812-.554688.394531-.074219.0625-.152344.121094-.230469.179687-.167969.140626-.332031.285157-.492187.433594-.066406.0625-.136719.121094-.199219.183594-.207031.203125-.40625.414062-.589844.632812-.074219.082032-.140625.175782-.210937.261719-.113282.144531-.230469.289063-.335938.441407-.074218.105468-.148437.214843-.21875.324218-.09375.140625-.183594.285156-.269531.433594-.0625.109375-.125.214844-.183594.328125-.089843.164063-.171875.335937-.253906.503906-.042969.09375-.089844.1875-.128906.285157-.105469.246093-.199219.496093-.285157.75-.007812.023437-.019531.046874-.027343.070312-.09375.289062-.175781.585938-.246094.886719-.007813.046875-.015625.09375-.023437.136719-.054688.246093-.097657.496093-.132813.746093-.011719.085938-.019531.171875-.027344.257813-.023437.210937-.042969.421875-.050781.636718-.003906.105469-.007812.210938-.011719.3125 0 .195313.003907.386719.011719.582032.007812.121094.011719.238281.019531.355468.015625.183594.039063.363282.066407.546876.015624.125.027343.25.050781.375.046875.265624.105469.527343.175781.792968.070312.277344.160156.554688.257812.828125.027344.074219.046876.152344.074219.222657.011719.03125.027344.0625.039063.09375.117187.292968.242187.582031.386718.863281 4.144532 8.203125 8.957032 18.605469 14.125 30.484375h-41.042968c-.863282-8.542969-1.496094-16.234375-1.855469-22.777344-.019531-.304688-.054687-.609375-.097656-.914062-.007813-.039063-.007813-.082032-.015625-.121094-.011719-.066406-.027344-.132813-.042969-.199219-.050781-.292969-.113281-.585937-.191406-.871094-.070313-.269531-.15625-.53125-.25-.789062-.039063-.113281-.089844-.222657-.136719-.335938-.070312-.175781-.144531-.347656-.222656-.519531-.050782-.105469-.105469-.207031-.160156-.3125-.089844-.171875-.183594-.34375-.28125-.507812-.054688-.09375-.109376-.183594-.167969-.273438-.113281-.175781-.230469-.347656-.351563-.511719-.058594-.078125-.109375-.152343-.167968-.226562-.140626-.183594-.289063-.359375-.445313-.53125-.046875-.054688-.089844-.109375-.136719-.160157-.203125-.214843-.410156-.421874-.628906-.621093-.074219-.066407-.15625-.128907-.234375-.191407-.140625-.121093-.28125-.242187-.429687-.351562-.125-.09375-.257813-.183594-.386719-.269531-.101563-.074219-.207031-.144531-.3125-.210938-.152344-.09375-.304688-.1875-.460938-.273437-.085937-.046875-.171875-.09375-.257812-.136719-.175781-.09375-.351563-.179687-.53125-.261719-.058594-.023437-.113281-.046875-.167969-.070312-.601562-.257813-1.238281-.457032-1.894531-.589844-.121094-.023438-.238281-.050781-.359375-.070312-.152344-.023438-.300782-.046876-.453125-.0625-.171875-.023438-.34375-.039063-.519531-.050782-.117188-.007812-.234376-.015625-.355469-.019531-.0625 0-.121094-.007813-.183594-.007813l-4.449219-16.609374zm129.96875 344.332032c-1.886718 2.898437-4.910156 5.027344-8.507812 5.992187l-93.894532 25.160157c-3.597656.960937-7.277343.628906-10.363281-.9375-2.726562-1.386719-4.609375-3.578126-5.308593-6.179688l-3.722657-13.894531 119.582031-32.039063 3.722657 13.894532c.695312 2.597656.160156 5.441406-1.507813 8.003906zm0 0"/><path d="m321.425781 231.105469-.234375.0625c-5.335937 1.429687-8.5 6.910156-7.074218 12.246093 1.199218 4.46875 5.238281 7.414063 9.65625 7.414063.855468 0 1.726562-.109375 2.589843-.339844l.234375-.066406c5.335938-1.425781 8.5-6.910156 7.074219-12.246094-1.429687-5.332031-6.910156-8.5-12.246094-7.070312zm0 0"/><path d="m390.242188 361.214844c-4.410157-16.460938-19.378907-27.953125-36.402344-27.953125-3.285156 0-6.574219.433593-9.773438 1.289062-9.726562 2.609375-17.859375 8.847657-22.894531 17.570313s-6.375 18.882812-3.769531 28.609375c4.410156 16.457031 19.382812 27.953125 36.402344 27.953125h.003906c3.285156 0 6.574218-.433594 9.773437-1.292969 9.730469-2.605469 17.859375-8.84375 22.894531-17.566406 5.035157-8.722657 6.371094-18.882813 3.765626-28.609375zm-21.085938 18.609375c-2.363281 4.097656-6.183594 7.027343-10.75 8.25-1.511719.40625-3.058594.609375-4.597656.609375-7.988282 0-15.015625-5.398438-17.085938-13.128906-1.226562-4.566407-.597656-9.335938 1.765625-13.433594 2.367188-4.09375 6.183594-7.023438 10.753907-8.25 1.507812-.40625 3.058593-.609375 4.597656-.609375 7.988281 0 15.015625 5.398437 17.085937 13.128906 1.222657 4.566406.59375 9.339844-1.769531 13.433594zm0 0"/><path d="m230 0c-5.523438 0-10 4.476562-10 10v26.761719c0 5.523437 4.476562 10 10 10s10-4.476563 10-10v-26.761719c0-5.523438-4.476562-10-10-10zm0 0"/><path d="m179.304688 60.3125c1.863281 3.171875 5.203124 4.941406 8.636718 4.941406 1.71875 0 3.460938-.445312 5.050782-1.375 4.761718-2.796875 6.359374-8.921875 3.5625-13.6875l-13.59375-23.175781c-2.792969-4.765625-8.921876-6.363281-13.683594-3.566406-4.765625 2.792969-6.363282 8.921875-3.566406 13.683593zm0 0"/><path d="m267.011719 63.878906c1.589843.929688 3.332031 1.375 5.050781 1.375 3.429688 0 6.773438-1.769531 8.636719-4.941406l13.59375-23.179688c2.792969-4.761718 1.199219-10.890624-3.566407-13.683593-4.765624-2.796875-10.890624-1.199219-13.683593 3.566406l-13.597657 23.175781c-2.792968 4.765625-1.199218 10.890625 3.566407 13.6875zm0 0"/></svg>