<svg height="512pt" viewBox="0 -4 512.00048 512" width="512pt" xmlns="http://www.w3.org/2000/svg"><path d="m107.992188 127.492188-20.882813-2.09375c1.476563-14.691407 14.4375-25.449219 29.085937-24.28125 4.695313-10.226563 15.492188-16.832032 27.3125-15.644532 5.808594.582032 10.996094 2.964844 15.082032 6.527344 5.21875-3.859375 11.835937-5.867188 18.804687-5.167969s13.050781 3.980469 17.398438 8.804688c4.714843-2.683594 10.269531-3.988281 16.078125-3.40625 11.820312 1.1875 21.089844 9.808593 23.660156 20.761719 14.589844 1.769531 25.152344 14.886718 23.679688 29.578124l-63.996094-6.421874zm0 0" fill="#fffadc"/><path d="m234.53125 112.992188c-2.570312-10.953126-11.839844-19.574219-23.660156-20.761719-5.726563-.574219-11.207032.695312-15.875 3.300781 2.972656 3.65625 5.136718 7.976562 6.238281 12.664062 15.976563 1.9375 27.789063 15.582032 27.671875 31.433594l29.304688 2.941406c1.472656-14.691406-9.089844-27.808593-23.679688-29.578124zm0 0" fill="#ffefbb"/><path d="m83.054688 165.8125-2.300782 22.90625-38.394531-3.855469-11.765625 117.207031 38.398438 3.855469-2.300782 22.902344-38.394531-3.851563c-12.648437-1.269531-21.875-12.554687-20.605469-25.203124l11.765625-117.210938c1.269531-12.648438 12.554688-21.871094 25.203125-20.601562zm0 0" fill="#ddf5ff"/><path d="m68.074219 164.308594-2.445313 22.890625 15.128906 1.519531 2.296876-22.90625zm0 0" fill="#c1e9f4"/><path d="m50.875 327.242188 15.816406 1.585937 2.300782-22.902344-14.953126-1.5zm0 0" fill="#c1e9f4"/><path d="m61.285156 382.71875 171.097656 17.171875 21.769532-216.902344-173.847656 10.222657zm0 0" fill="#ffe046"/><path d="m80.304688 193.210938 173.847656-10.222657 4.058594-40.417969-171.101563-17.171874zm0 0" fill="#fffadc"/><path d="m238.4375 183.910156-22.957031 214.285156 16.902343 1.695313 21.769532-216.902344zm0 0" fill="#eec707"/><path d="m242.804688 141.023438-4.40625 42.890624 15.753906-.925781 4.058594-40.417969zm0 0" fill="#ffefbb"/><path d="m49.824219 408.792969 2.707031-26.941407 188.613281 18.933594-2.707031 26.945313zm0 0" fill="#ddf5ff"/><path d="m227.335938 399.386719-.433594 4.308593c-.554688 5.550782-5.503906 9.597657-11.054688 9.042969l-164.761718-16.539062-1.265626 12.585937 188.613282 18.929688 2.703125-26.945313zm0 0" fill="#c1e9f4"/><g fill="#eec707"><path d="m167.199219 289.878906c-3.71875-.371094-7.039063 2.339844-7.414063 6.0625-.371094 3.71875 2.339844 7.039063 6.0625 7.410156 3.71875.375 7.039063-2.339843 7.410156-6.058593.375-3.71875-2.339843-7.039063-6.058593-7.414063zm0 0"/><path d="m137.179688 212.679688c-3.71875-.375-7.039063 2.335937-7.410157 6.058593-.375 3.71875 2.339844 7.039063 6.058594 7.410157 3.722656.375 7.039063-2.339844 7.414063-6.058594.371093-3.71875-2.339844-7.039063-6.0625-7.410156zm0 0"/><path d="m118.882812 262.921875c-2.601562-.257813-4.925781 1.640625-5.1875 4.242187-.261718 2.605469 1.636719 4.929688 4.242188 5.191407s4.925781-1.640625 5.1875-4.242188c.261719-2.605469-1.636719-4.929687-4.242188-5.191406zm0 0"/><path d="m187.425781 222.59375c-2.605469-.261719-4.925781 1.636719-5.1875 4.242188-.261719 2.605468 1.636719 4.925781 4.242188 5.1875 2.601562.261718 4.925781-1.636719 5.1875-4.242188.261719-2.601562-1.636719-4.925781-4.242188-5.1875zm0 0"/><path d="m200.304688 262.925781c-2.605469-.261719-4.925782 1.636719-5.1875 4.238281-.261719 2.605469 1.636718 4.929688 4.238281 5.191407 2.605469.261719 4.929687-1.640625 5.191406-4.242188.261719-2.605469-1.636719-4.929687-4.242187-5.1875zm0 0"/></g><path d="m428.945312 235.457031 2.300782 22.902344 38.394531-3.855469 11.765625 117.210938-38.394531 3.851562 2.296875 22.902344 38.398437-3.851562c12.648438-1.269532 21.871094-12.554688 20.601563-25.203126l-11.761719-117.207031c-1.273437-12.652343-12.554687-21.875-25.203125-20.605469zm0 0" fill="#ddf5ff"/><path d="m431.246094 258.359375 38.394531-3.855469-.066406-.671875c-.449219-4.464843-4.429688-7.722656-8.894531-7.273437l-30.3125 3.042968zm0 0" fill="#c1e9f4"/><path d="m481.253906 234.636719 13.625 135.722656c.746094 7.441406-4.679687 14.078125-12.121094 14.828125l-38.394531 3.851562.945313 9.433594 38.398437-3.855468c12.648438-1.269532 21.871094-12.554688 20.601563-25.203126l-11.761719-117.207031c-.765625-7.613281-5.160156-13.980469-11.292969-17.570312zm0 0" fill="#c1e9f4"/><path d="m257.855469 252.621094 171.097656-17.179688 21.777344 216.902344-171.097657 17.179688zm0 0" fill="#ffe046"/><path d="m407.160156 196.816406 25.570313 257.347656 17.988281-1.804687-25.828125-257.320313zm0 0" fill="#eec707"/><path d="m253.796875 212.203125 171.097656-17.179687 4.058594 40.417968-171.097656 17.179688zm0 0" fill="#fffadc"/><path d="m407.160156 196.816406 4.847656 40.339844 16.9375-1.699219-4.054687-40.417969zm0 0" fill="#ffefbb"/><path d="m270.878906 470.402344 188.609375-18.9375 2.707031 26.945312-188.613281 18.9375zm0 0" fill="#ddf5ff"/><path d="m448.695312 452.5625.949219 9.429688c.371094 3.722656-2.339843 7.039062-6.058593 7.414062l-171.101563 17.171875 1.082031 10.777344 188.613282-18.929688-2.703126-26.945312zm0 0" fill="#c1e9f4"/><path d="m404.007812 197.132812 20.882813-2.09375c-1.476563-14.691406-14.433594-25.449218-29.085937-24.28125-4.695313-10.222656-15.492188-16.832031-27.3125-15.644531-5.804688.582031-10.992188 2.964844-15.078126 6.527344-5.21875-3.859375-11.835937-5.867187-18.804687-5.167969-6.96875.699219-13.054687 3.984375-17.402344 8.804688-4.710937-2.683594-10.269531-3.988282-16.074219-3.402344-11.820312 1.183594-21.089843 9.804688-23.660156 20.757812-14.589844 1.769532-25.15625 14.886719-23.679687 29.578126l63.992187-6.421876zm0 0" fill="#fffadc"/><path d="m378.628906 175.882812c13.511719-1.078124 25.578125 7.992188 28.53125 20.933594l17.730469-1.777344c-1.476563-14.695312-14.433594-25.449218-29.085937-24.285156-4.695313-10.222656-15.492188-16.828125-27.3125-15.644531-4.941407.496094-9.433594 2.300781-13.179688 5.023437 10.207031.476563 19.15625 6.691407 23.316406 15.75zm0 0" fill="#ffefbb"/><path d="m338.789062 320.019531c-.375-3.71875-3.695312-6.433593-7.414062-6.058593-3.71875.371093-6.433594 3.691406-6.058594 7.410156.371094 3.722656 3.691406 6.433594 7.410156 6.0625 3.722657-.375 6.433594-3.695313 6.0625-7.414063zm0 0" fill="#eec707"/><path d="m400.335938 268.933594c-.371094-3.722656-3.691407-6.433594-7.410157-6.0625-3.722656.375-6.433593 3.695312-6.058593 7.414062.371093 3.71875 3.691406 6.433594 7.410156 6.058594 3.722656-.371094 6.433594-3.691406 6.058594-7.410156zm0 0" fill="#eec707"/><path d="m380.613281 302.890625c-.261719-2.601563-2.582031-4.503906-5.1875-4.242187-2.605469.261718-4.503906 2.585937-4.242187 5.191406.261718 2.601562 2.585937 4.503906 5.1875 4.242187 2.605468-.261719 4.503906-2.585937 4.242187-5.191406zm0 0" fill="#eec707"/><path d="m316.46875 267.148438c-.261719-2.605469-2.585938-4.503907-5.1875-4.242188-2.605469.261719-4.503906 2.582031-4.242188 5.1875.261719 2.605469 2.582032 4.503906 5.1875 4.242188 2.605469-.261719 4.503907-2.585938 4.242188-5.1875zm0 0" fill="#eec707"/><path d="m294.320312 304.070312c-.261718-2.601562-2.582031-4.503906-5.1875-4.242187-2.605468.261719-4.503906 2.585937-4.242187 5.191406.261719 2.601563 2.585937 4.503907 5.1875 4.242188 2.605469-.261719 4.503906-2.585938 4.242187-5.191407zm0 0" fill="#eec707"/><path d="m356.8125 71.789062c8.09375 2.460938 12.660156 11.015626 10.199219 19.105469-2.460938 8.09375-11.015625 12.660157-19.109375 10.199219 0 0-20.957032-8.175781-40.398438 8.476562 0 0 13.882813-48.554687 49.308594-37.78125zm0 0" fill="#fffadc"/><path d="m265.652344 8.628906c-7.882813-3.078125-16.761719.816406-19.839844 8.695313-3.078125 7.878906.816406 16.761719 8.699219 19.839843 0 0 21.515625 6.546876 26.484375 31.660157 0 0 19.148437-46.730469-15.34375-60.195313zm0 0" fill="#fffadc"/><path d="m511.847656 368.660156-11.765625-117.210937c-.816406-8.132813-4.75-15.457031-11.078125-20.628907-6.324218-5.171874-14.285156-7.574218-22.417968-6.753906l-30.859376 3.097656-3.296874-32.882812c-1.710938-17.019531-15.355469-30.035156-32.179688-31.113281-4.574219-7.023438-11.6875-12.238281-19.757812-14.492188-9.199219-2.574219-19.308594-1.164062-27.441407 3.855469-5.855469-3-12.511719-4.261719-19.199219-3.597656-6.667968.671875-12.925781 3.234375-18.097656 7.347656-4.882812-1.792969-10.160156-2.464844-15.378906-1.945312-13.035156 1.308593-24.066406 9.824218-28.773438 21.753906-3.445312.949218-6.664062 2.417968-9.574218 4.308594l3.71875-37.074219c1.699218-16.917969-9.371094-32.484375-25.347656-36.878907-4.707032-11.929687-15.734376-20.441406-28.769532-21.75-5.21875-.523437-10.496094.152344-15.378906 1.945313-10.488281-8.34375-25.359375-9.867187-37.296875-3.75-8.046875-4.964844-18.03125-6.40625-27.152344-3.9375-8.1875 2.214844-15.417969 7.464844-20.046875 14.574219-16.824218 1.078125-30.46875 14.09375-32.175781 31.113281l-3.300781 32.878906-30.859375-3.097656c-8.136719-.816406-16.09375 1.585937-22.421875 6.753906-6.324219 5.175781-10.257813 12.5-11.074219 20.628907l-11.765625 117.210937c-.816406 8.132813 1.582031 16.09375 6.753906 22.417969 5.171875 6.328125 12.5 10.261718 20.628906 11.078125l30.859376 3.097656-3.894532 38.816406c-1.875-.1875-3.640625-.222656-5.382812.648438-2.292969 1.152343-3.875 3.457031-4.128906 6.007812l-2.707032 26.945313c-.417968 4.164062 2.617188 7.875 6.78125 8.292968l188.613282 18.933594c4.105468.398438 7.878906-2.671875 8.289062-6.78125l2.707031-26.945312c.417969-4.160156-2.617187-7.875-6.78125-8.292969l-1.222656-.125 11.832031-117.875 18.820313 187.519531c-1.960938.195313-3.765625.539063-5.328125 1.851563-1.90625 1.601562-2.917969 4.085937-2.671875 6.5625l2.703125 26.945312c.414062 4.109375 4.1875 7.179688 8.292968 6.777344l188.613282-18.929687c4.105468-.414063 7.191406-4.1875 6.78125-8.292969l-2.707032-26.945313c-.238281-2.382812-1.625-4.558594-3.6875-5.777344-1.847656-1.089843-3.765624-1.085937-5.824218-.878906l-3.894532-38.816406 30.859376-3.101562c16.785156-1.679688 29.066406-16.707032 27.386718-33.488282zm-417.957031-234.96875 156.027344 15.660156-2.65625 26.453126-158.535157 9.324218zm168.195313 85.300782 156.023437-15.660157 2.542969 25.34375-156.023438 15.660157zm16.296874-28.839844c3.15625-.382813 5.738282-2.695313 6.460938-5.789063 1.902344-8.113281 8.753906-14.121093 17.042969-14.953125 4-.40625 8.078125.460938 11.574219 2.449219 3.054687 1.738281 7.015624 1.097656 9.371093-1.511719 3.25-3.601562 7.699219-5.855468 12.535157-6.339844 4.851562-.492187 9.632812.828126 13.542968 3.722657 2.855469 2.113281 6.800782 1.957031 9.480469-.382813 4.8125-4.195312 11.550781-5.789062 17.730469-4.167968 5.609375 1.46875 10.382812 5.464843 12.800781 10.738281.703125 1.527343 1.917969 2.800781 3.414063 3.570312 1.855468.957031 3.632812.753907 5.640624.753907 7.363282 0 13.808594 4.058593 17.117188 10.167968l-152.976562 15.355469c2.230468-7.113281 8.464843-12.667969 16.265624-13.613281 3.15625-.382813-7.800781.945312 0 0zm-164.359374-81.550782c1.90625 0 3.609374.207032 5.394531-.632812 1.609375-.753906 2.921875-2.078125 3.660156-3.695312 2.421875-5.269532 7.191406-9.265626 12.800781-10.734376 6.179688-1.617187 12.917969-.027343 17.730469 4.167969 2.679687 2.339844 6.625 2.496094 9.484375.382813 3.910156-2.890625 8.683594-4.207032 13.542969-3.722656 4.832031.484374 9.28125 2.734374 12.53125 6.339843 2.382812 2.640625 6.28125 3.269531 9.371093 1.511719 3.5-1.992188 7.558594-2.859375 11.574219-2.449219 8.289063.828125 15.140625 6.839844 17.042969 14.953125.726562 3.09375 3.308594 5.40625 6.464844 5.789063 7.796875.945312 14.03125 6.5 16.265625 13.609375l-152.980469-15.351563c3.3125-6.109375 9.753906-10.167969 17.117188-10.167969zm-84.96875 208.835938c-4.105469-.410156-7.804688-2.394531-10.414063-5.589844-2.613281-3.195312-3.824219-7.214844-3.410156-11.320312l11.761719-117.207032c.414062-4.105468 2.398437-7.804687 5.59375-10.414062 3.191406-2.613281 7.210937-3.824219 11.316406-3.410156l30.859375 3.097656-.785157 7.828125-30.859374-3.097656c-1.996094-.195313-3.996094.402343-5.550782 1.675781-1.554687 1.269531-2.542968 3.105469-2.742187 5.105469l-11.765625 117.210937c-.417969 4.160156 2.617187 7.875 6.78125 8.292969l30.859375 3.097656-.785157 7.828125zm202.601562 101.984375-173.539062-17.417969 1.1875-11.871094 173.542968 17.417969zm-162.078125-43.484375 6.949219-69.253906 3.84375-38.296875c.417968-4.160157-2.617188-7.875-6.78125-8.292969-4.164063-.417969-7.871094 2.617188-8.289063 6.78125l-3.089843 30.757812-23.324219-2.339843 10.253906-102.136719 23.324219 2.339844-3.539063 35.230468c-.398437 4 2.519531 7.714844 6.503907 8.261719 4.195312.574219 8.148437-2.535156 8.570312-6.746093l3.195312-31.851563 158.535157-9.320313-20.128907 200.527344zm210.769531 113.125-1.191406-11.871094 173.539062-17.417968 1.191407 11.871093zm6.050782-27.824219-20.257813-201.828125 156.027344-15.660156 6.878906 68.539062c.414063 4.109376 4.183594 7.1875 8.292969 6.777344 4.105468-.410156 7.191406-4.183594 6.78125-8.292968l-4.582032-45.636719 23.320313-2.339844 10.253906 102.136719-23.324219 2.339844-2.0625-20.523438c-.417968-4.160156-4.121093-7.191406-8.292968-6.777344-4.160156.417969-7.195313 4.128906-6.777344 8.292969l9.765625 97.3125zm196.550781-74.160156-30.859375 3.097656-.789063-7.828125 30.863281-3.097656c4.160157-.417969 7.195313-4.128906 6.777344-8.292969l-11.761718-117.210937c-.203126-1.996094-1.1875-3.835938-2.746094-5.105469-1.554688-1.269531-3.550782-1.867187-5.546875-1.671875l-30.863281 3.097656-.785157-7.832031 30.859375-3.097656c4.109375-.417969 8.125.800781 11.320313 3.410156 3.191406 2.613281 5.175781 6.308594 5.589843 10.414063l11.765626 117.210937c.851562 8.472656-5.351563 16.058594-13.824219 16.90625zm0 0"/><path d="m303.414062 115.945312c5.011719 3.21875 8.742188-.769531 12.703126-3.429687 3.898437-2.621094 8.296874-4.46875 12.929687-5.308594 4.492187-.8125 9.175781-.726562 13.632813.265625 3.265624.726563 6.257812 1.863282 9.683593 1.863282 10.144531 0 18.941407-6.527344 21.894531-16.238282 2.363282-7.769531.351563-16.386718-5.195312-22.320312-5.609375-6.003906-14.238281-8.125-22.222656-8.125-33.414063 0-46.09375 43.003906-46.617188 44.832031-.921875 3.21875.375 6.652344 3.191406 8.460937 1.25.804688-2.816406-1.808593 0 0 5.011719 3.21875-2.816406-1.808593 0 0zm43.425782-38.144531c4.320312 0 10.09375.769531 12.347656 4.996094 2.386719 4.472656-.257812 10.113281-5.171875 11.207031-3.617187.808594-8.183594-1.488281-11.773437-1.996094-6.121094-.867187-12.398438-.589843-18.417969.839844 5.269531-7.792968 13.039062-15.046875 23.015625-15.046875zm0 0"/><path d="m251.753906 44.21875c6.421875 2.488281 11.953125 6.5 15.96875 12.179688 3.625 5.125 3.660156 12.039062 7.128906 16.851562 3.425782 4.753906 10.933594 3.863281 13.152344-1.554688.46875-1.144531 11.351563-28.203124 2.191406-49.578124-4.109374-9.59375-11.441406-16.503907-21.789062-20.546876-2.671875-1.042968-5.472656-1.570312-8.320312-1.570312-9.5 0-17.871094 5.71875-21.328126 14.570312-4.589843 11.757813 1.242188 25.054688 12.996094 29.648438.183594.070312-11.753906-4.59375 0 0zm1.117188-24.140625c3.351562-8.585937 13.484375-3.800781 18.210937.570313 6.808594 6.304687 8.167969 16.152343 7.511719 24.972656-4.714844-5.957032-10.863281-10.8125-17.738281-14.042969-4.746094-2.226563-10.558594-4.910156-7.984375-11.5 1.167968-2.992187-1.535156 3.925781 0 0zm0 0"/></svg>