<svg height="511pt" viewBox="-25 0 511 511.98186" width="511pt" xmlns="http://www.w3.org/2000/svg"><path d="m452.757812 332.78125c0 94.292969-99.328124 170.667969-221.867187 170.667969s-221.867187-76.375-221.867187-170.667969c.050781-22.109375 5.5-43.875 15.871093-63.402344 21.347657 13.703125 44.820313 23.765625 69.464844 29.78125 44.605469 11.371094 90.496094 16.9375 136.53125 16.554688 46.035156.382812 91.925781-5.183594 136.535156-16.554688 24.640625-6.015625 48.113281-16.078125 69.460938-29.78125 10.371093 19.527344 15.820312 41.292969 15.871093 63.402344zm0 0" fill="#f18d46"/><path d="m392.597656 254.703125c-15.746094 6.453125-32.019531 11.535156-48.640625 15.1875-13.3125 2.902344-27.476562 5.375-42.324219 7.339844l-1.023437.085937c-23.128906 2.882813-46.414063 4.308594-69.71875 4.265625-22.902344.011719-45.785156-1.359375-68.523437-4.097656-15.1875-1.875-29.78125-4.351563-43.347657-7.335937-16.613281-3.574219-32.886719-8.570313-48.640625-14.933594 1.535156-13.292969 3.84375-26.484375 6.910156-39.511719 4.011719-16.980469 6.742188-35.582031 19.96875-48.125 4.121094-3.910156 8.921876-7.035156 14.167969-9.21875v-.085937l45.566407-57.855469c3.933593-5.300781 10.976562-7.234375 17.066406-4.691407h.085937c3.609375 1.535157 6.425781 4.496094 7.785157 8.179688 1.355468 3.683594 1.132812 7.761719-.617188 11.277344-7.167969 14.589844-17.238281 37.886718-16.382812 55.292968 2.996093 3.414063 5.496093 7.238282 7.421874 11.351563 1.765626 3.894531 2.917969 8.039063 3.414063 12.285156 14.601563-15.167969 34.804687-23.65625 55.859375-23.460937 21.050781.191406 41.097656 9.050781 55.414062 24.488281.472657-4.601563 1.683594-9.097656 3.585938-13.3125 1.925781-4.113281 4.425781-7.9375 7.421875-11.351563.855469-17.40625-9.214844-40.703124-16.382813-55.292968-1.75-3.515625-1.972656-7.59375-.617187-11.277344s4.175781-6.644531 7.785156-8.179688h.085938c6.089843-2.542968 13.132812-.609374 17.066406 4.691407l45.566406 57.855469v.085937c5.246094 2.183594 10.046875 5.308594 14.167969 9.21875 13.226562 12.542969 15.957031 31.144531 19.96875 48.125 3.019531 12.863281 5.324219 25.882813 6.910156 39zm0 0" fill="#f18d46"/><path d="m287.039062 195.140625c-14.316406-15.4375-34.363281-24.296875-55.414062-24.488281-21.054688-.195313-41.257812 8.292968-55.859375 23.460937.328125 13.996094-1.777344 27.945313-6.230469 41.21875-3.324218 13.875-5.722656 27.957031-7.167968 42.152344 22.738281 2.738281 45.621093 4.109375 68.523437 4.097656 23.304687.042969 46.589844-1.382812 69.71875-4.265625l1.023437-.085937c4.023438-9.410157 6.085938-19.546875 6.058594-29.78125.011719-19.425781-7.371094-38.128907-20.652344-52.308594zm-20.050781 27.816406c4.097657 2.355469 5.511719 7.589844 3.15625 11.691407-2.355469 4.101562-7.589843 5.515624-11.691406 3.15625l-1.960937-1.109376v2.21875c0 4.714844-3.820313 8.535157-8.535157 8.535157-4.710937 0-8.53125-3.820313-8.53125-8.535157v-2.21875l-1.964843 1.109376c-2.652344 1.527343-5.914063 1.519531-8.5625-.015626-2.644532-1.535156-4.273438-4.363281-4.265626-7.425781.003907-3.058593 1.644532-5.882812 4.296876-7.40625l1.875-1.109375-1.875-1.109375c-2.652344-1.523437-4.292969-4.347656-4.296876-7.40625-.007812-3.058593 1.621094-5.890625 4.265626-7.425781 2.648437-1.53125 5.910156-1.539062 8.5625-.015625l1.964843 1.109375v-2.21875c0-4.710938 3.820313-8.53125 8.53125-8.53125 4.714844 0 8.535157 3.820312 8.535157 8.53125v2.21875l1.960937-1.109375c2.652344-1.523437 5.917969-1.515625 8.5625.015625 2.648437 1.535156 4.273437 4.367188 4.265625 7.425781-.003906 3.058594-1.640625 5.882813-4.292969 7.40625l-1.878906 1.109375zm0 0" fill="#c52828"/><path d="m265.023438 209.046875c0-16.492187-17.191407-29.863281-38.398438-29.863281s-38.402344 13.371094-38.402344 29.863281c0 16.496094 17.195313 29.867187 38.402344 29.867187s38.398438-13.371093 38.398438-29.867187zm0 0" fill="#f44335"/><path d="m452.757812 332.78125c0 94.292969-99.328124 170.667969-221.867187 170.667969 5.035156-.640625 10.023437-1.609375 14.933594-2.902344 110.078125-28.160156 121.003906-190.976563 121.601562-201.386719 16.976563-4.445312 33.496094-10.5 49.320313-18.089844 7-3.386718 13.730468-7.292968 20.140625-11.691406 10.371093 19.527344 15.820312 41.292969 15.871093 63.402344zm0 0" fill="#f57c00"/><path d="m427.15625 332.78125c0 83.628906-78.164062 153.175781-181.332031 167.765625 110.078125-28.160156 121.003906-190.976563 121.601562-201.386719 16.976563-4.445312 33.496094-10.5 49.320313-18.089844 6.859375 16.378907 10.398437 33.957032 10.410156 51.710938zm0 0" fill="#ff9801"/><path d="m230.890625 503.449219c-13.5625.035156-27.113281-.933594-40.53125-2.902344-103.167969-14.589844-181.335937-84.136719-181.335937-167.765625.015624-17.753906 3.554687-35.332031 10.410156-51.710938 1.621094-4.011718 3.5-7.851562 5.460937-11.691406 21.347657 13.703125 44.820313 23.765625 69.464844 29.78125.679687 11.007813 12.542969 187.734375 136.53125 204.289063zm0 0" fill="#d84315"/><path d="m190.359375 500.546875c-103.167969-14.589844-181.335937-84.136719-181.335937-167.765625.015624-17.753906 3.554687-35.332031 10.410156-51.710938 15.828125 7.589844 32.34375 13.644532 49.324218 18.089844.683594 10.582032 11.605469 173.226563 121.601563 201.386719zm0 0" fill="#ff5722"/><path d="m301.632812 277.230469c4.023438-9.410157 6.085938-19.546875 6.058594-29.78125.011719-19.425781-7.371094-38.128907-20.652344-52.308594.472657-4.601563 1.683594-9.097656 3.585938-13.3125 1.925781-4.113281 4.425781-7.9375 7.421875-11.351563 5.773437-6.5625 13.242187-11.402343 21.589844-13.992187.414062-.15625.84375-.269531 1.28125-.34375l.511719 2.050781c12.972656 35.917969 20.566406 73.558594 22.527343 111.699219-13.3125 2.902344-27.476562 5.375-42.324219 7.339844zm0 0" fill="#8bc34a"/><path d="m438.082031 268.609375c-.429687.257813-.769531.515625-1.195312.769531-21.347657 13.703125-44.820313 23.765625-69.460938 29.78125-44.609375 11.371094-90.5 16.9375-136.535156 16.554688-46.035156.382812-91.925781-5.183594-136.53125-16.554688-24.644531-6.015625-48.117187-16.078125-69.464844-29.78125-.425781-.253906-.765625-.511718-1.191406-.769531-6.457031-4.613281-8.878906-13.074219-5.84375-20.40625 3.035156-7.335937 10.726563-11.609375 18.558594-10.3125 2.542969.4375 4.960937 1.425781 7.082031 2.902344 2.597656 1.863281 5.304688 3.570312 8.105469 5.121093 6.03125 3.539063 12.304687 6.648438 18.773437 9.300782 15.753906 6.363281 32.027344 11.359375 48.640625 14.933594 13.566407 2.984374 28.160157 5.460937 43.347657 7.335937 22.738281 2.738281 45.621093 4.109375 68.523437 4.097656 23.304687.042969 46.589844-1.382812 69.71875-4.265625l1.023437-.085937c14.847657-1.964844 29.011719-4.4375 42.324219-7.339844 16.621094-3.652344 32.894531-8.734375 48.640625-15.1875 6.03125-2.515625 11.875-5.453125 17.492188-8.789063 2.835937-1.539062 5.570312-3.246093 8.191406-5.121093 2.121094-1.476563 4.539062-2.464844 7.085938-2.902344 7.828124-1.296875 15.519531 2.976563 18.554687 10.3125 3.035156 7.332031.613281 15.792969-5.839844 20.40625zm0 0" fill="#ffb301"/><path d="m230.890625 315.714844v187.734375c-8.726563-1.140625-17.308594-3.199219-25.601563-6.144531-91.046874-32.339844-107.6875-161.367188-110.417968-192.085938-.34375-3.070312-.429688-5.121094-.511719-6.058594 44.605469 11.371094 90.496094 16.9375 136.53125 16.554688zm0 0" fill="#f57c00"/><path d="m205.289062 315.714844v181.589844c-91.046874-32.339844-107.6875-161.367188-110.417968-192.085938 36.367187 7.15625 73.355468 10.671875 110.417968 10.496094zm0 0" fill="#ff9801"/><path d="m367.425781 299.160156c-.597656 10.835938-12.460937 187.734375-136.535156 204.289063v-187.734375c37.066406.175781 74.054687-3.339844 110.421875-10.496094 9.046875-1.792969 17.75-3.839844 26.113281-6.058594zm0 0" fill="#d84315"/><path d="m341.3125 305.21875c-2.644531 30.550781-19.285156 159.746094-110.421875 192.085938v-181.589844c37.066406.175781 74.054687-3.339844 110.421875-10.496094zm0 0" fill="#ff5722"/><path d="m142.058594 156.140625-.511719 2.050781c-13.015625 35.996094-20.609375 73.726563-22.527344 111.957032-16.613281-3.574219-32.886719-8.570313-48.640625-14.933594 1.535156-13.292969 3.84375-26.484375 6.910156-39.511719 4.011719-16.980469 6.742188-35.582031 19.96875-48.125 9.691407-9.070313 22.679688-13.761719 35.925782-12.972656 3 .226562 5.972656.742187 8.875 1.535156zm0 0" fill="#8bc34a"/><path d="m181.3125 115.183594c-7.167969 14.589844-17.238281 37.886718-16.382812 55.292968-5.773438-6.5625-13.242188-11.402343-21.589844-13.992187-.417969-.15625-.84375-.269531-1.28125-.34375-2.902344-.792969-5.875-1.308594-8.875-1.535156-7.449219-.515625-14.914063.773437-21.757813 3.753906v-.085937l45.566407-57.855469c3.933593-5.300781 10.976562-7.234375 17.066406-4.691407h.085937c3.609375 1.535157 6.425781 4.496094 7.785157 8.179688 1.355468 3.683594 1.132812 7.761719-.617188 11.277344zm0 0" fill="#795548"/><path d="m392.597656 254.703125c-15.746094 6.453125-32.019531 11.535156-48.640625 15.1875-1.960937-38.140625-9.554687-75.78125-22.527343-111.699219l-.511719-2.050781c2.902343-.792969 5.875-1.308594 8.875-1.535156 13.246093-.789063 26.234375 3.902343 35.925781 12.972656 13.226562 12.542969 15.957031 31.144531 19.96875 48.125 3.019531 12.863281 5.324219 25.882813 6.910156 39zm0 0" fill="#558b30"/><path d="m351.550781 158.273438v.085937c-6.84375-2.980469-14.308593-4.269531-21.757812-3.753906-3 .226562-5.972657.742187-8.875 1.535156-.4375.074219-.867188.1875-1.28125.34375-8.347657 2.589844-15.816407 7.429687-21.589844 13.992187.855469-17.40625-9.214844-40.703124-16.382813-55.292968-1.75-3.515625-1.972656-7.59375-.617187-11.277344s4.175781-6.644531 7.785156-8.179688h.085938c6.089843-2.542968 13.132812-.609374 17.066406 4.691407zm0 0" fill="#795548"/><path d="m169.535156 235.332031c-3.324218 13.875-5.722656 27.957031-7.167968 42.152344-15.1875-1.875-29.78125-4.351563-43.347657-7.335937 1.917969-38.230469 9.511719-75.960938 22.527344-111.957032l.511719-2.050781c.4375.074219.863281.1875 1.28125.34375 8.347656 2.589844 15.816406 7.429687 21.589844 13.992187 2.996093 3.414063 5.496093 7.238282 7.421874 11.351563 1.765626 3.894531 2.917969 8.039063 3.414063 12.285156.328125 13.996094-1.777344 27.945313-6.230469 41.21875zm0 0" fill="#558b30"/><path d="m453.433594 258.960938c1.445312-8.253907-1.265625-16.6875-7.246094-22.550782-5.984375-5.867187-14.46875-8.410156-22.691406-6.804687l-30.804688-140.605469c-10.871094-44.832031-48.089844-78.433594-93.796875-84.683594-45.140625-5.753906-90.832031-5.753906-135.972656 0-22.3125 2.808594-43.21875 12.433594-59.859375 27.5625-16.847656 15.253906-28.707031 35.230469-34.023438 57.328125l-30.71875 140.398438c-10.707031-2.054688-21.535156 2.929687-26.9375 12.402343-5.398437 9.46875-4.175781 21.328126 3.042969 29.496094-9.128906 19.140625-13.890625 40.070313-13.933593 61.277344 0 98.808594 103.347656 179.199219 230.398437 179.199219 127.035156 0 230.398437-80.390625 230.398437-179.199219-.023437-21.203125-4.765624-42.132812-13.875-61.277344 3.132813-3.539062 5.21875-7.882812 6.019532-12.542968zm-367.789063-165.898438c4.527344-18.703125 14.578125-35.609375 28.851563-48.519531 14.066406-12.789063 31.738281-20.925781 50.601562-23.296875 43.699219-5.570313 87.929688-5.570313 131.628906 0 38.65625 5.292968 70.136719 33.699218 79.359376 71.613281l31.683593 144.628906c-2.558593 1.5625-5.417969 3.109375-8.394531 4.617188-1.417969-9.214844-3.109375-18.636719-5.371094-28.363281l-1.40625-6.179688c-3.507812-15.648438-7.492187-33.371094-20.964844-46.15625-4.3125-4.109375-9.253906-7.5-14.636718-10.050781l-44.183594-56.066407c-6.105469-8.292968-17.023438-11.445312-26.609375-7.679687l-.640625.230469c-5.804688 2.425781-10.34375 7.148437-12.539062 13.046875-2.191407 5.898437-1.835938 12.441406.976562 18.066406 8.414062 14.992187 13.683594 31.542969 15.488281 48.640625-2.59375 3.28125-4.820312 6.839844-6.636719 10.605469-.199218.429687-.300781.90625-.488281 1.339843-14.796875-11.265624-32.875-17.386718-51.472656-17.425781-18.226563-.046875-35.976563 5.832031-50.566406 16.753907-.09375-.222657-.148438-.453126-.25-.667969-1.808594-3.75-4.027344-7.292969-6.613281-10.5625 1.792968-17.070313 7.050781-33.59375 15.445312-48.5625 2.847656-5.632813 3.222656-12.191407 1.035156-18.109375-2.183594-5.917969-6.734375-10.660156-12.554687-13.089844-.195313-.078125-.402344-.152344-.613281-.222656-9.488282-3.777344-20.328126-.730469-26.453126 7.441406l-44.316406 56.320312c-5.367187 2.53125-10.292968 5.914063-14.589844 10.011719-13.5 12.796875-17.476562 30.523438-20.992187 46.164063l-1.425781 6.246094c-2.371094 10.375-4.179688 19.875-5.527344 28.84375-3.339844-1.707032-6.519531-3.371094-9.386719-5.121094zm42.242188 170.121094c2.386719-32.621094 8.921875-64.808594 19.445312-95.777344 4.226563 2.191406 8.015625 5.140625 11.179688 8.695312 2.453125 2.789063 4.503906 5.914063 6.082031 9.277344 1.398438 3.105469 2.3125 6.410156 2.707031 9.792969.476563 10.308594-.925781 20.617187-4.140625 30.421875-.671875 2.621094-1.328125 5.214844-1.945312 7.835938-2.976563 13.054687-5.035156 24.171874-6.347656 34.335937-9.296876-1.300781-18.285157-2.828125-26.964844-4.582031zm30.078125-109.335938c-3.824219-2.339844-7.921875-4.199218-12.203125-5.539062-3.90625-1.167969-7.925781-1.90625-11.988281-2.210938-.632813-.050781-1.273438 0-1.902344 0l31.964844-40.609375c1.578124-2.113281 4.394531-2.878906 6.828124-1.851562l.503907.195312c1.277343.632813 2.261719 1.734375 2.753906 3.074219.550781 1.492188.449219 3.148438-.28125 4.5625-6.976563 13.414062-12.238281 27.652344-15.660156 42.378906zm-54.828125 19.898438c7.457031-6.984375 17.351562-10.777344 27.5625-10.5625-10.515625 31.132812-17.136719 63.449218-19.710938 96.210937-10.613281-2.648437-21.066406-5.90625-31.308593-9.761719 1.316406-9.8125 3.242187-20.324218 5.914062-31.992187l1.460938-6.363281c3.257812-14.535156 6.347656-28.28125 16.101562-37.53125zm74.695312 63.53125c.578125-2.464844 1.210938-4.957032 1.84375-7.46875 3.128907-10.425782 4.722657-21.253906 4.726563-32.144532 22.78125-21.476562 57.273437-24.644531 83.585937-7.675781 26.3125 16.964844 37.65625 49.691407 27.492188 79.304688-41.082031 4.695312-82.550781 4.898437-123.675781.605469 1.238281-9.589844 3.191406-20.164063 6.042968-32.621094zm151.292969-91.179688c-4.066406.3125-8.09375 1.058594-12.003906 2.226563-4.261719 1.339843-8.34375 3.191406-12.152344 5.523437-3.429688-14.769531-8.703125-29.046875-15.691406-42.496094-1.390625-2.777343-.273438-6.15625 2.5-7.554687l.511718-.195313c2.519532-1.023437 5.410157-.171874 6.972657 2.058594l31.808593 40.402344c-.628906.019531-1.277343-.015625-1.925781.035156zm-32.988281 46.582032c.445312-2.484376 1.179687-4.910157 2.191406-7.226563 1.585937-3.382813 3.640625-6.527344 6.101563-9.335937 3.171874-3.5625 6.964843-6.519532 11.195312-8.71875 10.496094 30.90625 17.023438 63.019531 19.421875 95.570312-6.875 1.394531-13.914063 2.660156-21.117187 3.800781 6.199218-26.109375-.410157-53.605469-17.792969-74.046875zm55.816406 66.433593c-2.605469-32.664062-9.230469-64.886719-19.71875-95.929687 10.230469-.222656 20.140625 3.578125 27.59375 10.589844 9.730469 9.222656 12.800781 22.96875 16.085937 37.546874l1.441407 6.320313c2.5625 10.90625 4.378906 21.4375 5.796875 31.617187-10.195313 3.882813-20.605469 7.171876-31.183594 9.855469zm-325.308594-9.359375c1.316407-1.855468 3.316407-3.113281 5.558594-3.488281s4.542969.164063 6.390625 1.488281c8.917969 6.15625 18.488281 11.304688 28.535156 15.363282 16.222656 6.550781 32.980469 11.6875 50.089844 15.359374 13.882812 3.054688 28.730469 5.5625 44.160156 7.472657h.246094c46.535156 5.5625 93.570312 5.503906 140.09375-.167969.375-.078125.714844 0 1.066406-.09375 14.890625-1.972656 29.363282-4.480469 43.109375-7.484375 17.117188-3.757813 33.878907-8.996094 50.089844-15.652344 9.605469-3.945312 18.761719-8.90625 27.308594-14.804687 1.847656-1.324219 4.148437-1.859375 6.390625-1.484375 2.242187.378906 4.242187 1.632812 5.554687 3.492187 2.558594 3.640625 1.9375 8.628906-1.433593 11.535156l-.964844.605469-.714844.480469c-20.589844 13.140625-43.199219 22.800781-66.929688 28.59375-43.878906 11.183594-89.023437 16.636719-134.304687 16.214844-45.277344.421875-90.421875-5.027344-134.296875-16.214844-23.695312-5.804688-46.273438-15.464844-66.832031-28.59375-.15625-.121094-.949219-.617188-1.109375-.71875-1.847656-1.3125-3.09375-3.304688-3.46875-5.535156-.378906-2.234375.148437-4.523438 1.460937-6.367188zm195.714844 243.523438c-93.203125-20.183594-114.066406-142.0625-118.460937-182.945313 38.867187 8.886719 78.589843 13.511719 118.460937 13.789063zm17.066406-169.15625c39.871094-.273438 79.589844-4.898438 118.457031-13.789063-4.265624 39.039063-25.027343 162.617188-118.457031 182.925781zm-221.867187 8.660156c.085937-17.558594 3.847656-34.90625 11.042968-50.925781 18.144532 10.371093 37.535157 18.398437 57.699219 23.894531 2.5625 29.363281 16.375 133.757812 83.261719 182.328125-87.824219-20.09375-152.003906-82.097656-152.003906-155.296875zm274.210937 155.375c67.632813-49.101562 81.3125-155.503906 83.710938-182.441406 20.167969-5.46875 39.5625-13.480469 57.710937-23.84375 7.1875 16.015625 10.945313 33.355468 11.03125 50.910156 0 73.328125-64.398437 135.40625-152.453125 155.375zm0 0"/><path d="m237.445312 237.773438 1.980469-1.144532v2.285156c0 4.714844 3.820313 8.535157 8.53125 8.535157 4.714844 0 8.535157-3.820313 8.535157-8.535157v-2.285156l1.976562 1.144532c2.644531 1.546874 5.914062 1.5625 8.566406.035156 2.65625-1.523438 4.292969-4.355469 4.285156-7.417969-.007812-3.0625-1.65625-5.886719-4.316406-7.398437l-1.980468-1.144532 1.980468-1.144531c4.046875-2.371094 5.417969-7.5625 3.074219-11.625s-7.53125-5.472656-11.609375-3.152344l-1.976562 1.144531v-2.289062c0-4.710938-3.820313-8.53125-8.535157-8.53125-4.710937 0-8.53125 3.820312-8.53125 8.53125v2.289062l-1.980469-1.144531c-4.078124-2.320312-9.261718-.910156-11.609374 3.152344-2.34375 4.0625-.972657 9.253906 3.074218 11.625l1.980469 1.144531-1.980469 1.144532c-2.660156 1.511718-4.308594 4.335937-4.316406 7.398437-.003906 3.0625 1.628906 5.894531 4.285156 7.417969 2.65625 1.527344 5.925782 1.511718 8.566406-.035156zm0 0"/></svg>