<svg height="511pt" viewBox="0 -18 511.99969 511" width="511pt" xmlns="http://www.w3.org/2000/svg"><path d="m175.53125 161.4375c5.523438 0 10-4.476562 10-10v-.023438c0-5.523437-4.476562-9.988281-10-9.988281s-10 4.488281-10 10.011719 4.476562 10 10 10zm0 0"/><path d="m233.847656 153.289062h102.195313c5.523437 0 10-4.476562 10-10 0-5.519531-4.476563-10-10-10h-102.195313c-5.523437 0-10 4.480469-10 10 0 5.523438 4.476563 10 10 10zm0 0"/><path d="m233.847656 203.851562h102.195313c5.523437 0 10-4.476562 10-10 0-5.519531-4.476563-10-10-10h-102.195313c-5.523437 0-10 4.480469-10 10 0 5.523438 4.476563 10 10 10zm0 0"/><path d="m233.847656 254.414062h102.195313c5.523437 0 10-4.476562 10-10 0-5.523437-4.476563-10-10-10h-102.195313c-5.523437 0-10 4.476563-10 10 0 5.523438 4.476563 10 10 10zm0 0"/><path d="m233.847656 304.976562h76.140625c5.523438 0 10-4.476562 10-10 0-5.519531-4.476562-10-10-10h-76.140625c-5.523437 0-10 4.480469-10 10 0 5.523438 4.476563 10 10 10zm0 0"/><path d="m510.347656 328.007812c-5.511718-50.285156-22.5625-80.421874-30.09375-101.632812-6.171875-15.34375-20.851562-25.261719-37.394531-25.261719h-38.5v-110.53125c0-19.902343-16.191406-36.09375-36.09375-36.09375h-12.078125v-17.898437c0-19.898438-16.191406-36.089844-36.09375-36.089844h-161.640625c-26.898437 0-48.78125 21.882812-48.78125 48.78125v151.832031h-40.550781c-16.542969 0-31.21875 9.917969-37.394532 25.261719-8.351562 23.519531-31.726562 64.285156-31.726562 131.3125v56.585938c0 33.878906 27.5625 61.441406 61.441406 61.441406h389.097656c33.882813 0 61.441407-27.5625 61.441407-61.441406-.167969-55.464844.675781-65.296876-1.632813-86.265626zm-67.484375-106.894531c8.332031 0 15.726563 4.996094 18.835938 12.726563 18.757812 47.671875 26.84375 59.574218 16.089843 73.953125-4.605468 6.160156-11.664062 9.695312-19.359374 9.695312h-54.066407v-96.375zm-313.191406-171.832031c0-15.871094 12.910156-28.78125 28.78125-28.78125h161.640625c8.875 0 16.09375 7.21875 16.09375 16.09375v17.894531h-134.5625c-19.902344 0-36.09375 16.191407-36.09375 36.09375v20.832031c0 5.523438 4.476562 10 10 10s10-4.476562 10-10v-20.832031c0-8.875 7.21875-16.09375 16.09375-16.09375h166.644531c8.871094 0 16.09375 7.21875 16.09375 16.09375v226.90625h-37.683593c-14.855469 0-27.871094 10.035157-31.65625 24.402344l-.945313 3.59375c-1.546875 5.886719-6.882813 10-12.972656 10h-90.230469c-6.089844 0-11.425781-4.113281-12.972656-10-1.976563-7.699219-4.546875-14.941406-12.371094-21.015625v-133.058594c0-5.519531-4.476562-10-10-10s-10 4.480469-10 10v126.082032c-.074219 0-.152344-.003907-.230469-.003907h-.097656c-.683594-.023437.550781-.125-35.535156 0v-268.207031zm-79.390625 184.558594c3.109375-7.730469 10.503906-12.726563 18.839844-12.726563h40.550781v96.375h-56.121094c-7.695312 0-14.75-3.535156-19.359375-9.695312-10.714844-14.332031-2.597656-26.449219 16.089844-73.953125zm141.398438 221.878906v-18.804688c0-7.429687 6.042968-13.472656 13.472656-13.472656h101.679687c7.425781 0 13.46875 6.042969 13.46875 13.472656v18.804688zm300.304687-41.445312c0 22.851562-18.59375 41.445312-41.445313 41.445312h-110.238281v-18.804688c0-18.457031-15.015625-33.472656-33.46875-33.472656h-101.679687c-18.457032 0-33.46875 15.015625-33.46875 33.472656v18.804688h-110.242188c-22.851562 0-41.441406-18.59375-41.441406-41.445312.023438-54.582032-.828125-65.503907 2.210938-89.8125 8.238281 8.34375 19.367187 13.027343 31.339843 13.027343 3.542969.003907 108.773438 0 111.457031 0 14.214844.628907 11.1875 12.035157 17.457032 22.164063.128906.207031.261718.410156.398437.617187 6.246094 9.601563 16.859375 15.214844 28.011719 15.214844h90.230469c15.167969 0 28.457031-10.246094 32.316406-24.914063l.945313-3.589843c1.46875-5.589844 6.53125-9.492188 12.3125-9.492188h111.75c11.976562 0 23.101562-4.683593 31.34375-13.027343 2.914062 21.800781 2.183593 34.121093 2.210937 89.8125zm0 0"/></svg>